<svg id="visual" viewBox="0 0 1920 1080" width="1920" height="1080" xmlns="http://www.w3.org/2000/svg" xmlns:xlink="http://www.w3.org/1999/xlink" version="1.1"><rect x="0" y="0" width="1920" height="1080" fill="#D8D9DA"></rect><defs><linearGradient id="grad1_0" x1="43.8%" y1="0%" x2="100%" y2="100%"><stop offset="14.444444444444446%" stop-color="#d8d9da" stop-opacity="1"></stop><stop offset="85.55555555555554%" stop-color="#d8d9da" stop-opacity="1"></stop></linearGradient></defs><defs><linearGradient id="grad2_0" x1="0%" y1="0%" x2="56.3%" y2="100%"><stop offset="14.444444444444446%" stop-color="#d8d9da" stop-opacity="1"></stop><stop offset="85.55555555555554%" stop-color="#d8d9da" stop-opacity="1"></stop></linearGradient></defs><g transform="translate(1920, 0)"><path d="M0 378C-50.7 373.7 -101.4 369.4 -144.7 349.2C-187.9 329.1 -223.6 293 -256.7 256.7C-289.8 220.3 -320.2 183.7 -340 140.8C-359.8 98 -368.9 49 -378 0L0 0Z" fill="#0C134F"></path></g><g transform="translate(0, 1080)"><path d="M0 -378C45.8 -364.2 91.6 -350.4 138.5 -334.4C185.4 -318.4 233.4 -300.2 267.3 -267.3C301.2 -234.3 321.1 -186.7 337.2 -139.7C353.3 -92.7 365.7 -46.3 378 0L0 0Z" fill="#0C134F"></path></g></svg>