<svg id="visual" viewBox="0 0 1920 1080" width="1920" height="1080" xmlns="http://www.w3.org/2000/svg" xmlns:xlink="http://www.w3.org/1999/xlink" version="1.1"><rect x="0" y="0" width="1920" height="1080" fill="#1b85d7"></rect><defs><linearGradient id="grad1_0" x1="43.8%" y1="0%" x2="100%" y2="100%"><stop offset="14.444444444444446%" stop-color="#1b85d7" stop-opacity="1"></stop><stop offset="85.55555555555554%" stop-color="#1b85d7" stop-opacity="1"></stop></linearGradient></defs><defs><linearGradient id="grad2_0" x1="0%" y1="0%" x2="56.3%" y2="100%"><stop offset="14.444444444444446%" stop-color="#1b85d7" stop-opacity="1"></stop><stop offset="85.55555555555554%" stop-color="#1b85d7" stop-opacity="1"></stop></linearGradient></defs><g transform="translate(1920, 0)"><path d="M0 540C-62 513.9 -123.9 487.8 -193.3 466.6C-262.6 445.3 -339.2 429 -381.8 381.8C-424.4 334.7 -432.9 256.7 -453.6 187.9C-474.3 119.1 -507.2 59.6 -540 0L0 0Z" fill="#011224"></path></g><g transform="translate(0, 1080)"><path d="M0 -540C82 -543.6 163.9 -547.2 206.6 -498.9C249.4 -450.5 252.9 -350.2 297 -297C341.1 -243.7 425.8 -237.6 473 -195.9C520.3 -154.3 530.1 -77.1 540 0L0 0Z" fill="#011224"></path></g></svg>